<svg width="117" height="48" viewBox="0 0 117 48" fill="none" xmlns="http://www.w3.org/2000/svg">
<path d="M10.7793 38.3896C10.7793 37.5889 10.5547 36.9541 10.1055 36.4854C9.66602 36.0068 8.91406 35.5674 7.84961 35.167C6.78516 34.7666 5.86719 34.3711 5.0957 33.9805C4.32422 33.5801 3.66016 33.126 3.10352 32.6182C2.55664 32.1006 2.12695 31.4951 1.81445 30.8018C1.51172 30.1084 1.36035 29.2832 1.36035 28.3262C1.36035 26.6758 1.8877 25.3232 2.94238 24.2686C3.99707 23.2139 5.39844 22.5986 7.14648 22.4229V19.2881H9.49023V22.4668C11.2188 22.7109 12.5713 23.4336 13.5479 24.6348C14.5244 25.8262 15.0127 27.374 15.0127 29.2783H10.7793C10.7793 28.1064 10.5352 27.2324 10.0469 26.6562C9.56836 26.0703 8.92383 25.7773 8.11328 25.7773C7.3125 25.7773 6.69238 26.0068 6.25293 26.4658C5.81348 26.915 5.59375 27.54 5.59375 28.3408C5.59375 29.083 5.80859 29.6787 6.23828 30.1279C6.66797 30.5771 7.46387 31.0361 8.62598 31.5049C9.79785 31.9736 10.7598 32.418 11.5117 32.8379C12.2637 33.248 12.8984 33.7168 13.416 34.2441C13.9336 34.7617 14.3291 35.3574 14.6025 36.0312C14.876 36.6953 15.0127 37.4717 15.0127 38.3604C15.0127 40.0205 14.4951 41.3682 13.46 42.4033C12.4248 43.4385 10.999 44.0488 9.18262 44.2344V47.1494H6.85352V44.249C4.85156 44.0342 3.29883 43.3262 2.19531 42.125C1.10156 40.9141 0.554688 39.3076 0.554688 37.3057H4.78809C4.78809 38.4678 5.06152 39.3613 5.6084 39.9863C6.16504 40.6016 6.96094 40.9092 7.99609 40.9092C8.85547 40.9092 9.53418 40.6846 10.0322 40.2354C10.5303 39.7764 10.7793 39.1611 10.7793 38.3896ZM48.5723 44H19.334V38.1992L33.1328 23.4922C35.0273 21.4219 36.4238 19.6152 37.3223 18.0723C38.2402 16.5293 38.6992 15.0645 38.6992 13.6777C38.6992 11.7832 38.2207 10.2988 37.2637 9.22461C36.3066 8.13086 34.9395 7.58398 33.1621 7.58398C31.248 7.58398 29.7344 8.24805 28.6211 9.57617C27.5273 10.8848 26.9805 12.6133 26.9805 14.7617H18.4844C18.4844 12.1641 19.0996 9.79102 20.3301 7.64258C21.5801 5.49414 23.3379 3.81445 25.6035 2.60352C27.8691 1.37305 30.4375 0.757812 33.3086 0.757812C37.7031 0.757812 41.1113 1.8125 43.5332 3.92188C45.9746 6.03125 47.1953 9.00977 47.1953 12.8574C47.1953 14.9668 46.6484 17.1152 45.5547 19.3027C44.4609 21.4902 42.5859 24.0391 39.9297 26.9492L30.2324 37.1738H48.5723V44ZM73.5918 26.9492C71.3848 29.1172 68.8066 30.2012 65.8574 30.2012C62.0879 30.2012 59.0703 28.9121 56.8047 26.334C54.5391 23.7363 53.4062 20.2402 53.4062 15.8457C53.4062 13.0527 54.0117 10.4941 55.2227 8.16992C56.4531 5.82617 58.1621 4.00977 60.3496 2.7207C62.5371 1.41211 64.998 0.757812 67.7324 0.757812C70.5449 0.757812 73.0449 1.46094 75.2324 2.86719C77.4199 4.27344 79.1191 6.29492 80.3301 8.93164C81.541 11.5684 82.1562 14.5859 82.1758 17.9844V21.1191C82.1758 28.2285 80.4082 33.8145 76.873 37.877C73.3379 41.9395 68.3281 44.1074 61.8438 44.3809L59.7637 44.4102V37.3496L61.6387 37.3203C69.002 36.9883 72.9863 33.5312 73.5918 26.9492ZM67.9375 23.7266C69.3047 23.7266 70.4766 23.375 71.4531 22.6719C72.4492 21.9688 73.2012 21.1191 73.709 20.123V16.6367C73.709 13.7656 73.1621 11.5391 72.0684 9.95703C70.9746 8.375 69.5098 7.58398 67.6738 7.58398C65.9746 7.58398 64.5781 8.36523 63.4844 9.92773C62.3906 11.4707 61.8438 13.4141 61.8438 15.7578C61.8438 18.082 62.3711 19.9961 63.4258 21.5C64.5 22.9844 66.0039 23.7266 67.9375 23.7266ZM108.045 26.9492C105.838 29.1172 103.26 30.2012 100.311 30.2012C96.541 30.2012 93.5234 28.9121 91.2578 26.334C88.9922 23.7363 87.8594 20.2402 87.8594 15.8457C87.8594 13.0527 88.4648 10.4941 89.6758 8.16992C90.9062 5.82617 92.6152 4.00977 94.8027 2.7207C96.9902 1.41211 99.4512 0.757812 102.186 0.757812C104.998 0.757812 107.498 1.46094 109.686 2.86719C111.873 4.27344 113.572 6.29492 114.783 8.93164C115.994 11.5684 116.609 14.5859 116.629 17.9844V21.1191C116.629 28.2285 114.861 33.8145 111.326 37.877C107.791 41.9395 102.781 44.1074 96.2969 44.3809L94.2168 44.4102V37.3496L96.0918 37.3203C103.455 36.9883 107.439 33.5312 108.045 26.9492ZM102.391 23.7266C103.758 23.7266 104.93 23.375 105.906 22.6719C106.902 21.9688 107.654 21.1191 108.162 20.123V16.6367C108.162 13.7656 107.615 11.5391 106.521 9.95703C105.428 8.375 103.963 7.58398 102.127 7.58398C100.428 7.58398 99.0312 8.36523 97.9375 9.92773C96.8438 11.4707 96.2969 13.4141 96.2969 15.7578C96.2969 18.082 96.8242 19.9961 97.8789 21.5C98.9531 22.9844 100.457 23.7266 102.391 23.7266Z" fill="white"/>
</svg>
