<svg width="83" height="48" viewBox="0 0 83 48" fill="none" xmlns="http://www.w3.org/2000/svg">
<path d="M11.0059 38.3896C11.0059 37.5889 10.7812 36.9541 10.332 36.4854C9.89258 36.0068 9.14062 35.5674 8.07617 35.167C7.01172 34.7666 6.09375 34.3711 5.32227 33.9805C4.55078 33.5801 3.88672 33.126 3.33008 32.6182C2.7832 32.1006 2.35352 31.4951 2.04102 30.8018C1.73828 30.1084 1.58691 29.2832 1.58691 28.3262C1.58691 26.6758 2.11426 25.3232 3.16895 24.2686C4.22363 23.2139 5.625 22.5986 7.37305 22.4229V19.2881H9.7168V22.4668C11.4453 22.7109 12.7979 23.4336 13.7744 24.6348C14.751 25.8262 15.2393 27.374 15.2393 29.2783H11.0059C11.0059 28.1064 10.7617 27.2324 10.2734 26.6562C9.79492 26.0703 9.15039 25.7773 8.33984 25.7773C7.53906 25.7773 6.91895 26.0068 6.47949 26.4658C6.04004 26.915 5.82031 27.54 5.82031 28.3408C5.82031 29.083 6.03516 29.6787 6.46484 30.1279C6.89453 30.5771 7.69043 31.0361 8.85254 31.5049C10.0244 31.9736 10.9863 32.418 11.7383 32.8379C12.4902 33.248 13.125 33.7168 13.6426 34.2441C14.1602 34.7617 14.5557 35.3574 14.8291 36.0312C15.1025 36.6953 15.2393 37.4717 15.2393 38.3604C15.2393 40.0205 14.7217 41.3682 13.6865 42.4033C12.6514 43.4385 11.2256 44.0488 9.40918 44.2344V47.1494H7.08008V44.249C5.07812 44.0342 3.52539 43.3262 2.42188 42.125C1.32812 40.9141 0.78125 39.3076 0.78125 37.3057H5.01465C5.01465 38.4678 5.28809 39.3613 5.83496 39.9863C6.3916 40.6016 7.1875 40.9092 8.22266 40.9092C9.08203 40.9092 9.76074 40.6846 10.2588 40.2354C10.7568 39.7764 11.0059 39.1611 11.0059 38.3896ZM39.3652 26.9492C37.1582 29.1172 34.5801 30.2012 31.6309 30.2012C27.8613 30.2012 24.8438 28.9121 22.5781 26.334C20.3125 23.7363 19.1797 20.2402 19.1797 15.8457C19.1797 13.0527 19.7852 10.4941 20.9961 8.16992C22.2266 5.82617 23.9355 4.00977 26.123 2.7207C28.3105 1.41211 30.7715 0.757812 33.5059 0.757812C36.3184 0.757812 38.8184 1.46094 41.0059 2.86719C43.1934 4.27344 44.8926 6.29492 46.1035 8.93164C47.3145 11.5684 47.9297 14.5859 47.9492 17.9844V21.1191C47.9492 28.2285 46.1816 33.8145 42.6465 37.877C39.1113 41.9395 34.1016 44.1074 27.6172 44.3809L25.5371 44.4102V37.3496L27.4121 37.3203C34.7754 36.9883 38.7598 33.5312 39.3652 26.9492ZM33.7109 23.7266C35.0781 23.7266 36.25 23.375 37.2266 22.6719C38.2227 21.9688 38.9746 21.1191 39.4824 20.123V16.6367C39.4824 13.7656 38.9355 11.5391 37.8418 9.95703C36.748 8.375 35.2832 7.58398 33.4473 7.58398C31.748 7.58398 30.3516 8.36523 29.2578 9.92773C28.1641 11.4707 27.6172 13.4141 27.6172 15.7578C27.6172 18.082 28.1445 19.9961 29.1992 21.5C30.2734 22.9844 31.7773 23.7266 33.7109 23.7266ZM73.8184 26.9492C71.6113 29.1172 69.0332 30.2012 66.084 30.2012C62.3145 30.2012 59.2969 28.9121 57.0312 26.334C54.7656 23.7363 53.6328 20.2402 53.6328 15.8457C53.6328 13.0527 54.2383 10.4941 55.4492 8.16992C56.6797 5.82617 58.3887 4.00977 60.5762 2.7207C62.7637 1.41211 65.2246 0.757812 67.959 0.757812C70.7715 0.757812 73.2715 1.46094 75.459 2.86719C77.6465 4.27344 79.3457 6.29492 80.5566 8.93164C81.7676 11.5684 82.3828 14.5859 82.4023 17.9844V21.1191C82.4023 28.2285 80.6348 33.8145 77.0996 37.877C73.5645 41.9395 68.5547 44.1074 62.0703 44.3809L59.9902 44.4102V37.3496L61.8652 37.3203C69.2285 36.9883 73.2129 33.5312 73.8184 26.9492ZM68.1641 23.7266C69.5312 23.7266 70.7031 23.375 71.6797 22.6719C72.6758 21.9688 73.4277 21.1191 73.9355 20.123V16.6367C73.9355 13.7656 73.3887 11.5391 72.2949 9.95703C71.2012 8.375 69.7363 7.58398 67.9004 7.58398C66.2012 7.58398 64.8047 8.36523 63.7109 9.92773C62.6172 11.4707 62.0703 13.4141 62.0703 15.7578C62.0703 18.082 62.5977 19.9961 63.6523 21.5C64.7266 22.9844 66.2305 23.7266 68.1641 23.7266Z" fill="#172755"/>
</svg>
