<svg width="463" height="305" viewBox="0 0 463 305" fill="none" xmlns="http://www.w3.org/2000/svg">
<rect x="0.870605" y="45" width="66" height="52" fill="white"/>
<rect x="66.8706" y="45" width="66" height="52" fill="white"/>
<path d="M99.9873 75H98.8975V67.7754L96.7119 68.5781V67.5938L99.8174 66.4277H99.9873V75Z" fill="#172755"/>
<rect x="132.871" y="45" width="66" height="52" fill="white"/>
<path d="M168.015 75H162.425V74.2207L165.378 70.9395C165.815 70.4434 166.116 70.041 166.28 69.7324C166.448 69.4199 166.532 69.0977 166.532 68.7656C166.532 68.3203 166.397 67.9551 166.128 67.6699C165.858 67.3848 165.499 67.2422 165.05 67.2422C164.511 67.2422 164.091 67.3965 163.79 67.7051C163.493 68.0098 163.345 68.4355 163.345 68.9824H162.261C162.261 68.1973 162.513 67.5625 163.017 67.0781C163.524 66.5938 164.202 66.3516 165.05 66.3516C165.843 66.3516 166.47 66.5605 166.931 66.9785C167.392 67.3926 167.622 67.9453 167.622 68.6367C167.622 69.4766 167.087 70.4766 166.017 71.6367L163.731 74.1152H168.015V75Z" fill="#172755"/>
<rect x="198.871" y="45" width="66" height="52" fill="white"/>
<path d="M230.001 70.207H230.815C231.327 70.1992 231.729 70.0645 232.022 69.8027C232.315 69.541 232.462 69.1875 232.462 68.7422C232.462 67.7422 231.964 67.2422 230.968 67.2422C230.499 67.2422 230.124 67.377 229.843 67.6465C229.565 67.9121 229.427 68.2656 229.427 68.707H228.343C228.343 68.0312 228.589 67.4707 229.081 67.0254C229.577 66.5762 230.206 66.3516 230.968 66.3516C231.772 66.3516 232.403 66.5645 232.86 66.9902C233.317 67.416 233.546 68.0078 233.546 68.7656C233.546 69.1367 233.425 69.4961 233.183 69.8438C232.944 70.1914 232.618 70.4512 232.204 70.623C232.673 70.7715 233.034 71.0176 233.288 71.3613C233.546 71.7051 233.675 72.125 233.675 72.6211C233.675 73.3867 233.425 73.9941 232.925 74.4434C232.425 74.8926 231.774 75.1172 230.974 75.1172C230.173 75.1172 229.521 74.9004 229.017 74.4668C228.517 74.0332 228.267 73.4609 228.267 72.75H229.356C229.356 73.1992 229.503 73.5586 229.796 73.8281C230.089 74.0977 230.481 74.2324 230.974 74.2324C231.497 74.2324 231.897 74.0957 232.175 73.8223C232.452 73.5488 232.591 73.1562 232.591 72.6445C232.591 72.1484 232.438 71.7676 232.134 71.502C231.829 71.2363 231.39 71.0996 230.815 71.0918H230.001V70.207Z" fill="#172755"/>
<rect x="264.871" y="45" width="66" height="52" fill="white"/>
<path d="M299.001 72.1348H300.185V73.0195H299.001V75H297.911V73.0195H294.026V72.3809L297.847 66.4688H299.001V72.1348ZM295.257 72.1348H297.911V67.9512L297.782 68.1855L295.257 72.1348Z" fill="#172755"/>
<rect x="330.871" y="45" width="66" height="52" fill="white"/>
<path d="M360.923 70.7227L361.356 66.4688H365.728V67.4707H362.276L362.019 69.7969C362.437 69.5508 362.911 69.4277 363.442 69.4277C364.22 69.4277 364.837 69.6855 365.294 70.2012C365.751 70.7129 365.979 71.4062 365.979 72.2812C365.979 73.1602 365.741 73.8535 365.265 74.3613C364.792 74.8652 364.13 75.1172 363.278 75.1172C362.524 75.1172 361.909 74.9082 361.433 74.4902C360.956 74.0723 360.685 73.4941 360.618 72.7559H361.644C361.71 73.2441 361.884 73.6133 362.165 73.8633C362.446 74.1094 362.817 74.2324 363.278 74.2324C363.782 74.2324 364.177 74.0605 364.462 73.7168C364.751 73.373 364.896 72.8984 364.896 72.293C364.896 71.7227 364.739 71.2656 364.427 70.9219C364.118 70.5742 363.706 70.4004 363.19 70.4004C362.718 70.4004 362.347 70.5039 362.077 70.7109L361.79 70.9453L360.923 70.7227Z" fill="#172755"/>
<rect x="396.871" y="45" width="66" height="52" fill="white"/>
<path d="M430.679 66.4629V67.3828H430.479C429.636 67.3984 428.964 67.6484 428.464 68.1328C427.964 68.6172 427.675 69.2988 427.597 70.1777C428.046 69.6621 428.659 69.4043 429.437 69.4043C430.179 69.4043 430.771 69.666 431.212 70.1895C431.657 70.7129 431.88 71.3887 431.88 72.2168C431.88 73.0957 431.64 73.7988 431.159 74.3262C430.683 74.8535 430.042 75.1172 429.237 75.1172C428.421 75.1172 427.759 74.8047 427.251 74.1797C426.743 73.5508 426.489 72.7422 426.489 71.7539V71.3379C426.489 69.7676 426.823 68.5684 427.491 67.7402C428.163 66.9082 429.161 66.4824 430.485 66.4629H430.679ZM429.255 70.3066C428.884 70.3066 428.542 70.418 428.229 70.6406C427.917 70.8633 427.7 71.1426 427.579 71.4785V71.877C427.579 72.5801 427.737 73.1465 428.054 73.5762C428.37 74.0059 428.765 74.2207 429.237 74.2207C429.726 74.2207 430.108 74.041 430.386 73.6816C430.667 73.3223 430.808 72.8516 430.808 72.2695C430.808 71.6836 430.665 71.2109 430.38 70.8516C430.099 70.4883 429.724 70.3066 429.255 70.3066Z" fill="#172755"/>
<rect x="0.870605" y="97" width="66" height="52" fill="white"/>
<path d="M35.9326 119.078L32.3994 127H31.2627L34.7842 119.359H30.167V118.469H35.9326V119.078Z" fill="#172755"/>
<rect x="66.8706" y="97" width="66" height="52" fill="white"/>
<circle cx="99.3706" cy="122.5" r="19.5" fill="#0088F0"/>
<path d="M101.599 120.695C101.599 121.121 101.485 121.5 101.259 121.832C101.036 122.164 100.733 122.424 100.351 122.611C100.796 122.803 101.147 123.082 101.405 123.449C101.667 123.816 101.798 124.232 101.798 124.697C101.798 125.436 101.548 126.023 101.048 126.461C100.552 126.898 99.8975 127.117 99.085 127.117C98.2646 127.117 97.6064 126.898 97.1104 126.461C96.6182 126.02 96.3721 125.432 96.3721 124.697C96.3721 124.236 96.4971 123.82 96.7471 123.449C97.001 123.078 97.3506 122.797 97.7959 122.605C97.417 122.418 97.1182 122.158 96.8994 121.826C96.6807 121.494 96.5713 121.117 96.5713 120.695C96.5713 119.977 96.8018 119.406 97.2627 118.984C97.7236 118.562 98.3311 118.352 99.085 118.352C99.835 118.352 100.44 118.562 100.901 118.984C101.366 119.406 101.599 119.977 101.599 120.695ZM100.714 124.674C100.714 124.197 100.562 123.809 100.257 123.508C99.9561 123.207 99.5615 123.057 99.0732 123.057C98.585 123.057 98.1924 123.205 97.8955 123.502C97.6025 123.799 97.4561 124.189 97.4561 124.674C97.4561 125.158 97.5986 125.539 97.8838 125.816C98.1729 126.094 98.5732 126.232 99.085 126.232C99.5928 126.232 99.9912 126.094 100.28 125.816C100.569 125.535 100.714 125.154 100.714 124.674ZM99.085 119.242C98.6592 119.242 98.3135 119.375 98.0479 119.641C97.7861 119.902 97.6553 120.26 97.6553 120.713C97.6553 121.146 97.7842 121.498 98.042 121.768C98.3037 122.033 98.6514 122.166 99.085 122.166C99.5186 122.166 99.8643 122.033 100.122 121.768C100.384 121.498 100.515 121.146 100.515 120.713C100.515 120.279 100.38 119.926 100.11 119.652C99.8408 119.379 99.499 119.242 99.085 119.242Z" fill="#EEEEF7"/>
<rect x="132.871" y="97" width="66" height="52" fill="white"/>
<circle cx="165.371" cy="122.5" r="19.5" fill="#0088F0"/>
<path d="M166.579 123.25C166.353 123.52 166.081 123.736 165.765 123.9C165.452 124.064 165.108 124.146 164.733 124.146C164.241 124.146 163.812 124.025 163.444 123.783C163.081 123.541 162.8 123.201 162.601 122.764C162.401 122.322 162.302 121.836 162.302 121.305C162.302 120.734 162.409 120.221 162.624 119.764C162.843 119.307 163.151 118.957 163.55 118.715C163.948 118.473 164.413 118.352 164.944 118.352C165.788 118.352 166.452 118.668 166.937 119.301C167.425 119.93 167.669 120.789 167.669 121.879V122.195C167.669 123.855 167.341 125.068 166.685 125.834C166.028 126.596 165.038 126.986 163.714 127.006H163.503V126.092H163.731C164.626 126.076 165.313 125.844 165.794 125.395C166.274 124.941 166.536 124.227 166.579 123.25ZM164.909 123.25C165.272 123.25 165.606 123.139 165.911 122.916C166.22 122.693 166.444 122.418 166.585 122.09V121.656C166.585 120.945 166.431 120.367 166.122 119.922C165.813 119.477 165.423 119.254 164.95 119.254C164.474 119.254 164.091 119.438 163.802 119.805C163.513 120.168 163.368 120.648 163.368 121.246C163.368 121.828 163.507 122.309 163.784 122.688C164.065 123.062 164.44 123.25 164.909 123.25Z" fill="#EEEEF7"/>
<rect x="198.871" y="97" width="66" height="52" fill="white"/>
<circle cx="231.371" cy="122.5" r="19.5" fill="#0088F0"/>
<path d="M228.118 127H227.028V119.775L224.843 120.578V119.594L227.948 118.428H228.118V127ZM236.644 123.361C236.644 124.631 236.427 125.574 235.993 126.191C235.56 126.809 234.882 127.117 233.96 127.117C233.05 127.117 232.376 126.816 231.938 126.215C231.501 125.609 231.274 124.707 231.259 123.508V122.061C231.259 120.807 231.476 119.875 231.909 119.266C232.343 118.656 233.022 118.352 233.948 118.352C234.866 118.352 235.542 118.646 235.976 119.236C236.409 119.822 236.632 120.729 236.644 121.955V123.361ZM235.56 121.879C235.56 120.961 235.431 120.293 235.173 119.875C234.915 119.453 234.507 119.242 233.948 119.242C233.394 119.242 232.989 119.451 232.735 119.869C232.481 120.287 232.351 120.93 232.343 121.797V123.531C232.343 124.453 232.476 125.135 232.741 125.576C233.011 126.014 233.417 126.232 233.96 126.232C234.495 126.232 234.892 126.025 235.149 125.611C235.411 125.197 235.548 124.545 235.56 123.654V121.879Z" fill="#EEEEF7"/>
<rect x="264.871" y="97" width="66" height="52" fill="white"/>
<path d="M294.118 127H293.028V119.775L290.843 120.578V119.594L293.948 118.428H294.118V127ZM300.856 127H299.767V119.775L297.581 120.578V119.594L300.687 118.428H300.856V127Z" fill="#172755"/>
<rect x="330.871" y="97" width="66" height="52" fill="white"/>
<path d="M360.118 127H359.028V119.775L356.843 120.578V119.594L359.948 118.428H360.118V127ZM368.884 127H363.294V126.221L366.247 122.939C366.685 122.443 366.985 122.041 367.149 121.732C367.317 121.42 367.401 121.098 367.401 120.766C367.401 120.32 367.267 119.955 366.997 119.67C366.728 119.385 366.368 119.242 365.919 119.242C365.38 119.242 364.96 119.396 364.659 119.705C364.362 120.01 364.214 120.436 364.214 120.982H363.13C363.13 120.197 363.382 119.562 363.886 119.078C364.394 118.594 365.071 118.352 365.919 118.352C366.712 118.352 367.339 118.561 367.8 118.979C368.261 119.393 368.491 119.945 368.491 120.637C368.491 121.477 367.956 122.477 366.886 123.637L364.601 126.115H368.884V127Z" fill="#172755"/>
<rect x="396.871" y="97" width="66" height="52" fill="white"/>
<path d="M426.118 127H425.028V119.775L422.843 120.578V119.594L425.948 118.428H426.118V127ZM430.87 122.207H431.685C432.196 122.199 432.599 122.064 432.892 121.803C433.185 121.541 433.331 121.188 433.331 120.742C433.331 119.742 432.833 119.242 431.837 119.242C431.368 119.242 430.993 119.377 430.712 119.646C430.435 119.912 430.296 120.266 430.296 120.707H429.212C429.212 120.031 429.458 119.471 429.95 119.025C430.446 118.576 431.075 118.352 431.837 118.352C432.642 118.352 433.272 118.564 433.729 118.99C434.187 119.416 434.415 120.008 434.415 120.766C434.415 121.137 434.294 121.496 434.052 121.844C433.813 122.191 433.487 122.451 433.073 122.623C433.542 122.771 433.903 123.018 434.157 123.361C434.415 123.705 434.544 124.125 434.544 124.621C434.544 125.387 434.294 125.994 433.794 126.443C433.294 126.893 432.644 127.117 431.843 127.117C431.042 127.117 430.39 126.9 429.886 126.467C429.386 126.033 429.136 125.461 429.136 124.75H430.226C430.226 125.199 430.372 125.559 430.665 125.828C430.958 126.098 431.351 126.232 431.843 126.232C432.366 126.232 432.767 126.096 433.044 125.822C433.321 125.549 433.46 125.156 433.46 124.645C433.46 124.148 433.308 123.768 433.003 123.502C432.698 123.236 432.259 123.1 431.685 123.092H430.87V122.207Z" fill="#172755"/>
<rect x="0.870605" y="149" width="66" height="52" fill="white"/>
<path d="M30.1182 179H29.0283V171.775L26.8428 172.578V171.594L29.9482 170.428H30.1182V179ZM37.8701 176.135H39.0537V177.02H37.8701V179H36.7803V177.02H32.8955V176.381L36.7158 170.469H37.8701V176.135ZM34.126 176.135H36.7803V171.951L36.6514 172.186L34.126 176.135Z" fill="#172755"/>
<rect x="66.8706" y="149" width="66" height="52" fill="white"/>
<path d="M96.1182 179H95.0283V171.775L92.8428 172.578V171.594L95.9482 170.428H96.1182V179ZM99.792 174.723L100.226 170.469H104.597V171.471H101.146L100.888 173.797C101.306 173.551 101.78 173.428 102.312 173.428C103.089 173.428 103.706 173.686 104.163 174.201C104.62 174.713 104.849 175.406 104.849 176.281C104.849 177.16 104.61 177.854 104.134 178.361C103.661 178.865 102.999 179.117 102.147 179.117C101.394 179.117 100.778 178.908 100.302 178.49C99.8252 178.072 99.5537 177.494 99.4873 176.756H100.513C100.579 177.244 100.753 177.613 101.034 177.863C101.315 178.109 101.687 178.232 102.147 178.232C102.651 178.232 103.046 178.061 103.331 177.717C103.62 177.373 103.765 176.898 103.765 176.293C103.765 175.723 103.608 175.266 103.296 174.922C102.987 174.574 102.575 174.4 102.06 174.4C101.587 174.4 101.216 174.504 100.946 174.711L100.659 174.945L99.792 174.723Z" fill="#172755"/>
<rect x="132.871" y="149" width="66" height="52" fill="white"/>
<path d="M162.118 179H161.028V171.775L158.843 172.578V171.594L161.948 170.428H162.118V179ZM169.548 170.463V171.383H169.349C168.505 171.398 167.833 171.648 167.333 172.133C166.833 172.617 166.544 173.299 166.466 174.178C166.915 173.662 167.528 173.404 168.306 173.404C169.048 173.404 169.64 173.666 170.081 174.189C170.526 174.713 170.749 175.389 170.749 176.217C170.749 177.096 170.509 177.799 170.028 178.326C169.552 178.854 168.911 179.117 168.106 179.117C167.29 179.117 166.628 178.805 166.12 178.18C165.612 177.551 165.358 176.742 165.358 175.754V175.338C165.358 173.768 165.692 172.568 166.36 171.74C167.032 170.908 168.03 170.482 169.354 170.463H169.548ZM168.124 174.307C167.753 174.307 167.411 174.418 167.099 174.641C166.786 174.863 166.569 175.143 166.448 175.479V175.877C166.448 176.58 166.606 177.146 166.923 177.576C167.239 178.006 167.634 178.221 168.106 178.221C168.595 178.221 168.978 178.041 169.255 177.682C169.536 177.322 169.677 176.852 169.677 176.27C169.677 175.684 169.534 175.211 169.249 174.852C168.968 174.488 168.593 174.307 168.124 174.307Z" fill="#172755"/>
<rect x="198.871" y="149" width="66" height="52" fill="white"/>
<path d="M228.118 179H227.028V171.775L224.843 172.578V171.594L227.948 170.428H228.118V179ZM236.802 171.078L233.269 179H232.132L235.653 171.359H231.036V170.469H236.802V171.078Z" fill="#172755"/>
<rect x="264.871" y="149" width="66" height="52" fill="white"/>
<circle cx="297.371" cy="174.5" r="19.5" fill="#EF2A82"/>
<path d="M294.118 179H293.028V171.775L290.843 172.578V171.594L293.948 170.428H294.118V179ZM302.468 172.695C302.468 173.121 302.354 173.5 302.128 173.832C301.905 174.164 301.603 174.424 301.22 174.611C301.665 174.803 302.017 175.082 302.274 175.449C302.536 175.816 302.667 176.232 302.667 176.697C302.667 177.436 302.417 178.023 301.917 178.461C301.421 178.898 300.767 179.117 299.954 179.117C299.134 179.117 298.476 178.898 297.979 178.461C297.487 178.02 297.241 177.432 297.241 176.697C297.241 176.236 297.366 175.82 297.616 175.449C297.87 175.078 298.22 174.797 298.665 174.605C298.286 174.418 297.987 174.158 297.769 173.826C297.55 173.494 297.44 173.117 297.44 172.695C297.44 171.977 297.671 171.406 298.132 170.984C298.593 170.562 299.2 170.352 299.954 170.352C300.704 170.352 301.31 170.562 301.771 170.984C302.235 171.406 302.468 171.977 302.468 172.695ZM301.583 176.674C301.583 176.197 301.431 175.809 301.126 175.508C300.825 175.207 300.431 175.057 299.942 175.057C299.454 175.057 299.062 175.205 298.765 175.502C298.472 175.799 298.325 176.189 298.325 176.674C298.325 177.158 298.468 177.539 298.753 177.816C299.042 178.094 299.442 178.232 299.954 178.232C300.462 178.232 300.86 178.094 301.149 177.816C301.438 177.535 301.583 177.154 301.583 176.674ZM299.954 171.242C299.528 171.242 299.183 171.375 298.917 171.641C298.655 171.902 298.524 172.26 298.524 172.713C298.524 173.146 298.653 173.498 298.911 173.768C299.173 174.033 299.521 174.166 299.954 174.166C300.388 174.166 300.733 174.033 300.991 173.768C301.253 173.498 301.384 173.146 301.384 172.713C301.384 172.279 301.249 171.926 300.979 171.652C300.71 171.379 300.368 171.242 299.954 171.242Z" fill="#EEEEF7"/>
<rect x="330.871" y="149" width="66" height="52" fill="white"/>
<path d="M360.118 179H359.028V171.775L356.843 172.578V171.594L359.948 170.428H360.118V179ZM367.448 175.25C367.222 175.52 366.95 175.736 366.634 175.9C366.321 176.064 365.978 176.146 365.603 176.146C365.11 176.146 364.681 176.025 364.313 175.783C363.95 175.541 363.669 175.201 363.47 174.764C363.271 174.322 363.171 173.836 363.171 173.305C363.171 172.734 363.278 172.221 363.493 171.764C363.712 171.307 364.021 170.957 364.419 170.715C364.817 170.473 365.282 170.352 365.813 170.352C366.657 170.352 367.321 170.668 367.806 171.301C368.294 171.93 368.538 172.789 368.538 173.879V174.195C368.538 175.855 368.21 177.068 367.554 177.834C366.897 178.596 365.907 178.986 364.583 179.006H364.372V178.092H364.601C365.495 178.076 366.183 177.844 366.663 177.395C367.144 176.941 367.405 176.227 367.448 175.25ZM365.778 175.25C366.142 175.25 366.476 175.139 366.78 174.916C367.089 174.693 367.313 174.418 367.454 174.09V173.656C367.454 172.945 367.3 172.367 366.991 171.922C366.683 171.477 366.292 171.254 365.819 171.254C365.343 171.254 364.96 171.438 364.671 171.805C364.382 172.168 364.237 172.648 364.237 173.246C364.237 173.828 364.376 174.309 364.653 174.688C364.935 175.062 365.31 175.25 365.778 175.25Z" fill="#172755"/>
<rect x="396.871" y="149" width="66" height="52" fill="white"/>
<path d="M428.146 179H422.556V178.221L425.509 174.939C425.946 174.443 426.247 174.041 426.411 173.732C426.579 173.42 426.663 173.098 426.663 172.766C426.663 172.32 426.528 171.955 426.259 171.67C425.989 171.385 425.63 171.242 425.181 171.242C424.642 171.242 424.222 171.396 423.921 171.705C423.624 172.01 423.476 172.436 423.476 172.982H422.392C422.392 172.197 422.644 171.562 423.147 171.078C423.655 170.594 424.333 170.352 425.181 170.352C425.974 170.352 426.601 170.561 427.062 170.979C427.522 171.393 427.753 171.945 427.753 172.637C427.753 173.477 427.218 174.477 426.147 175.637L423.862 178.115H428.146V179ZM434.644 175.361C434.644 176.631 434.427 177.574 433.993 178.191C433.56 178.809 432.882 179.117 431.96 179.117C431.05 179.117 430.376 178.816 429.938 178.215C429.501 177.609 429.274 176.707 429.259 175.508V174.061C429.259 172.807 429.476 171.875 429.909 171.266C430.343 170.656 431.022 170.352 431.948 170.352C432.866 170.352 433.542 170.646 433.976 171.236C434.409 171.822 434.632 172.729 434.644 173.955V175.361ZM433.56 173.879C433.56 172.961 433.431 172.293 433.173 171.875C432.915 171.453 432.507 171.242 431.948 171.242C431.394 171.242 430.989 171.451 430.735 171.869C430.481 172.287 430.351 172.93 430.343 173.797V175.531C430.343 176.453 430.476 177.135 430.741 177.576C431.011 178.014 431.417 178.232 431.96 178.232C432.495 178.232 432.892 178.025 433.149 177.611C433.411 177.197 433.548 176.545 433.56 175.654V173.879Z" fill="#172755"/>
<rect x="0.870605" y="201" width="66" height="52" fill="white"/>
<path d="M32.1455 231H26.5557V230.221L29.5088 226.939C29.9463 226.443 30.2471 226.041 30.4111 225.732C30.5791 225.42 30.6631 225.098 30.6631 224.766C30.6631 224.32 30.5283 223.955 30.2588 223.67C29.9893 223.385 29.6299 223.242 29.1807 223.242C28.6416 223.242 28.2217 223.396 27.9209 223.705C27.624 224.01 27.4756 224.436 27.4756 224.982H26.3916C26.3916 224.197 26.6436 223.562 27.1475 223.078C27.6553 222.594 28.333 222.352 29.1807 222.352C29.9736 222.352 30.6006 222.561 31.0615 222.979C31.5225 223.393 31.7529 223.945 31.7529 224.637C31.7529 225.477 31.2178 226.477 30.1475 227.637L27.8623 230.115H32.1455V231ZM36.8564 231H35.7666V223.775L33.5811 224.578V223.594L36.6865 222.428H36.8564V231Z" fill="#172755"/>
<rect x="66.8706" y="201" width="66" height="52" fill="white"/>
<path d="M98.1455 231H92.5557V230.221L95.5088 226.939C95.9463 226.443 96.2471 226.041 96.4111 225.732C96.5791 225.42 96.6631 225.098 96.6631 224.766C96.6631 224.32 96.5283 223.955 96.2588 223.67C95.9893 223.385 95.6299 223.242 95.1807 223.242C94.6416 223.242 94.2217 223.396 93.9209 223.705C93.624 224.01 93.4756 224.436 93.4756 224.982H92.3916C92.3916 224.197 92.6436 223.562 93.1475 223.078C93.6553 222.594 94.333 222.352 95.1807 222.352C95.9736 222.352 96.6006 222.561 97.0615 222.979C97.5225 223.393 97.7529 223.945 97.7529 224.637C97.7529 225.477 97.2178 226.477 96.1475 227.637L93.8623 230.115H98.1455V231ZM104.884 231H99.2939V230.221L102.247 226.939C102.685 226.443 102.985 226.041 103.149 225.732C103.317 225.42 103.401 225.098 103.401 224.766C103.401 224.32 103.267 223.955 102.997 223.67C102.728 223.385 102.368 223.242 101.919 223.242C101.38 223.242 100.96 223.396 100.659 223.705C100.362 224.01 100.214 224.436 100.214 224.982H99.1299C99.1299 224.197 99.3818 223.562 99.8857 223.078C100.394 222.594 101.071 222.352 101.919 222.352C102.712 222.352 103.339 222.561 103.8 222.979C104.261 223.393 104.491 223.945 104.491 224.637C104.491 225.477 103.956 226.477 102.886 227.637L100.601 230.115H104.884V231Z" fill="#172755"/>
<rect x="132.871" y="201" width="66" height="52" fill="white"/>
<path d="M164.146 231H158.556V230.221L161.509 226.939C161.946 226.443 162.247 226.041 162.411 225.732C162.579 225.42 162.663 225.098 162.663 224.766C162.663 224.32 162.528 223.955 162.259 223.67C161.989 223.385 161.63 223.242 161.181 223.242C160.642 223.242 160.222 223.396 159.921 223.705C159.624 224.01 159.476 224.436 159.476 224.982H158.392C158.392 224.197 158.644 223.562 159.147 223.078C159.655 222.594 160.333 222.352 161.181 222.352C161.974 222.352 162.601 222.561 163.062 222.979C163.522 223.393 163.753 223.945 163.753 224.637C163.753 225.477 163.218 226.477 162.147 227.637L159.862 230.115H164.146V231ZM166.87 226.207H167.685C168.196 226.199 168.599 226.064 168.892 225.803C169.185 225.541 169.331 225.188 169.331 224.742C169.331 223.742 168.833 223.242 167.837 223.242C167.368 223.242 166.993 223.377 166.712 223.646C166.435 223.912 166.296 224.266 166.296 224.707H165.212C165.212 224.031 165.458 223.471 165.95 223.025C166.446 222.576 167.075 222.352 167.837 222.352C168.642 222.352 169.272 222.564 169.729 222.99C170.187 223.416 170.415 224.008 170.415 224.766C170.415 225.137 170.294 225.496 170.052 225.844C169.813 226.191 169.487 226.451 169.073 226.623C169.542 226.771 169.903 227.018 170.157 227.361C170.415 227.705 170.544 228.125 170.544 228.621C170.544 229.387 170.294 229.994 169.794 230.443C169.294 230.893 168.644 231.117 167.843 231.117C167.042 231.117 166.39 230.9 165.886 230.467C165.386 230.033 165.136 229.461 165.136 228.75H166.226C166.226 229.199 166.372 229.559 166.665 229.828C166.958 230.098 167.351 230.232 167.843 230.232C168.366 230.232 168.767 230.096 169.044 229.822C169.321 229.549 169.46 229.156 169.46 228.645C169.46 228.148 169.308 227.768 169.003 227.502C168.698 227.236 168.259 227.1 167.685 227.092H166.87V226.207Z" fill="#172755"/>
<rect x="198.871" y="201" width="66" height="52" fill="white"/>
<path d="M230.146 231H224.556V230.221L227.509 226.939C227.946 226.443 228.247 226.041 228.411 225.732C228.579 225.42 228.663 225.098 228.663 224.766C228.663 224.32 228.528 223.955 228.259 223.67C227.989 223.385 227.63 223.242 227.181 223.242C226.642 223.242 226.222 223.396 225.921 223.705C225.624 224.01 225.476 224.436 225.476 224.982H224.392C224.392 224.197 224.644 223.562 225.147 223.078C225.655 222.594 226.333 222.352 227.181 222.352C227.974 222.352 228.601 222.561 229.062 222.979C229.522 223.393 229.753 223.945 229.753 224.637C229.753 225.477 229.218 226.477 228.147 227.637L225.862 230.115H230.146V231ZM235.87 228.135H237.054V229.02H235.87V231H234.78V229.02H230.896V228.381L234.716 222.469H235.87V228.135ZM232.126 228.135H234.78V223.951L234.651 224.186L232.126 228.135Z" fill="#172755"/>
<rect x="264.871" y="201" width="66" height="52" fill="white"/>
<path d="M296.146 231H290.556V230.221L293.509 226.939C293.946 226.443 294.247 226.041 294.411 225.732C294.579 225.42 294.663 225.098 294.663 224.766C294.663 224.32 294.528 223.955 294.259 223.67C293.989 223.385 293.63 223.242 293.181 223.242C292.642 223.242 292.222 223.396 291.921 223.705C291.624 224.01 291.476 224.436 291.476 224.982H290.392C290.392 224.197 290.644 223.562 291.147 223.078C291.655 222.594 292.333 222.352 293.181 222.352C293.974 222.352 294.601 222.561 295.062 222.979C295.522 223.393 295.753 223.945 295.753 224.637C295.753 225.477 295.218 226.477 294.147 227.637L291.862 230.115H296.146V231ZM297.792 226.723L298.226 222.469H302.597V223.471H299.146L298.888 225.797C299.306 225.551 299.78 225.428 300.312 225.428C301.089 225.428 301.706 225.686 302.163 226.201C302.62 226.713 302.849 227.406 302.849 228.281C302.849 229.16 302.61 229.854 302.134 230.361C301.661 230.865 300.999 231.117 300.147 231.117C299.394 231.117 298.778 230.908 298.302 230.49C297.825 230.072 297.554 229.494 297.487 228.756H298.513C298.579 229.244 298.753 229.613 299.034 229.863C299.315 230.109 299.687 230.232 300.147 230.232C300.651 230.232 301.046 230.061 301.331 229.717C301.62 229.373 301.765 228.898 301.765 228.293C301.765 227.723 301.608 227.266 301.296 226.922C300.987 226.574 300.575 226.4 300.06 226.4C299.587 226.4 299.216 226.504 298.946 226.711L298.659 226.945L297.792 226.723Z" fill="#172755"/>
<rect x="330.871" y="201" width="66" height="52" fill="white"/>
<path d="M362.146 231H356.556V230.221L359.509 226.939C359.946 226.443 360.247 226.041 360.411 225.732C360.579 225.42 360.663 225.098 360.663 224.766C360.663 224.32 360.528 223.955 360.259 223.67C359.989 223.385 359.63 223.242 359.181 223.242C358.642 223.242 358.222 223.396 357.921 223.705C357.624 224.01 357.476 224.436 357.476 224.982H356.392C356.392 224.197 356.644 223.562 357.147 223.078C357.655 222.594 358.333 222.352 359.181 222.352C359.974 222.352 360.601 222.561 361.062 222.979C361.522 223.393 361.753 223.945 361.753 224.637C361.753 225.477 361.218 226.477 360.147 227.637L357.862 230.115H362.146V231ZM367.548 222.463V223.383H367.349C366.505 223.398 365.833 223.648 365.333 224.133C364.833 224.617 364.544 225.299 364.466 226.178C364.915 225.662 365.528 225.404 366.306 225.404C367.048 225.404 367.64 225.666 368.081 226.189C368.526 226.713 368.749 227.389 368.749 228.217C368.749 229.096 368.509 229.799 368.028 230.326C367.552 230.854 366.911 231.117 366.106 231.117C365.29 231.117 364.628 230.805 364.12 230.18C363.612 229.551 363.358 228.742 363.358 227.754V227.338C363.358 225.768 363.692 224.568 364.36 223.74C365.032 222.908 366.03 222.482 367.354 222.463H367.548ZM366.124 226.307C365.753 226.307 365.411 226.418 365.099 226.641C364.786 226.863 364.569 227.143 364.448 227.479V227.877C364.448 228.58 364.606 229.146 364.923 229.576C365.239 230.006 365.634 230.221 366.106 230.221C366.595 230.221 366.978 230.041 367.255 229.682C367.536 229.322 367.677 228.852 367.677 228.27C367.677 227.684 367.534 227.211 367.249 226.852C366.968 226.488 366.593 226.307 366.124 226.307Z" fill="#172755"/>
<rect x="396.871" y="201" width="66" height="52" fill="white"/>
<path d="M428.146 231H422.556V230.221L425.509 226.939C425.946 226.443 426.247 226.041 426.411 225.732C426.579 225.42 426.663 225.098 426.663 224.766C426.663 224.32 426.528 223.955 426.259 223.67C425.989 223.385 425.63 223.242 425.181 223.242C424.642 223.242 424.222 223.396 423.921 223.705C423.624 224.01 423.476 224.436 423.476 224.982H422.392C422.392 224.197 422.644 223.562 423.147 223.078C423.655 222.594 424.333 222.352 425.181 222.352C425.974 222.352 426.601 222.561 427.062 222.979C427.522 223.393 427.753 223.945 427.753 224.637C427.753 225.477 427.218 226.477 426.147 227.637L423.862 230.115H428.146V231ZM434.802 223.078L431.269 231H430.132L433.653 223.359H429.036V222.469H434.802V223.078Z" fill="#172755"/>
<rect x="0.870605" y="253" width="66" height="52" fill="white"/>
<path d="M32.1455 283H26.5557V282.221L29.5088 278.939C29.9463 278.443 30.2471 278.041 30.4111 277.732C30.5791 277.42 30.6631 277.098 30.6631 276.766C30.6631 276.32 30.5283 275.955 30.2588 275.67C29.9893 275.385 29.6299 275.242 29.1807 275.242C28.6416 275.242 28.2217 275.396 27.9209 275.705C27.624 276.01 27.4756 276.436 27.4756 276.982H26.3916C26.3916 276.197 26.6436 275.562 27.1475 275.078C27.6553 274.594 28.333 274.352 29.1807 274.352C29.9736 274.352 30.6006 274.561 31.0615 274.979C31.5225 275.393 31.7529 275.945 31.7529 276.637C31.7529 277.477 31.2178 278.477 30.1475 279.637L27.8623 282.115H32.1455V283ZM38.4678 276.695C38.4678 277.121 38.3545 277.5 38.1279 277.832C37.9053 278.164 37.6025 278.424 37.2197 278.611C37.665 278.803 38.0166 279.082 38.2744 279.449C38.5361 279.816 38.667 280.232 38.667 280.697C38.667 281.436 38.417 282.023 37.917 282.461C37.4209 282.898 36.7666 283.117 35.9541 283.117C35.1338 283.117 34.4756 282.898 33.9795 282.461C33.4873 282.02 33.2412 281.432 33.2412 280.697C33.2412 280.236 33.3662 279.82 33.6162 279.449C33.8701 279.078 34.2197 278.797 34.665 278.605C34.2861 278.418 33.9873 278.158 33.7686 277.826C33.5498 277.494 33.4404 277.117 33.4404 276.695C33.4404 275.977 33.6709 275.406 34.1318 274.984C34.5928 274.562 35.2002 274.352 35.9541 274.352C36.7041 274.352 37.3096 274.562 37.7705 274.984C38.2354 275.406 38.4678 275.977 38.4678 276.695ZM37.583 280.674C37.583 280.197 37.4307 279.809 37.126 279.508C36.8252 279.207 36.4307 279.057 35.9424 279.057C35.4541 279.057 35.0615 279.205 34.7646 279.502C34.4717 279.799 34.3252 280.189 34.3252 280.674C34.3252 281.158 34.4678 281.539 34.7529 281.816C35.042 282.094 35.4424 282.232 35.9541 282.232C36.4619 282.232 36.8604 282.094 37.1494 281.816C37.4385 281.535 37.583 281.154 37.583 280.674ZM35.9541 275.242C35.5283 275.242 35.1826 275.375 34.917 275.641C34.6553 275.902 34.5244 276.26 34.5244 276.713C34.5244 277.146 34.6533 277.498 34.9111 277.768C35.1729 278.033 35.5205 278.166 35.9541 278.166C36.3877 278.166 36.7334 278.033 36.9912 277.768C37.2529 277.498 37.3838 277.146 37.3838 276.713C37.3838 276.279 37.249 275.926 36.9795 275.652C36.71 275.379 36.3682 275.242 35.9541 275.242Z" fill="#172755"/>
<rect x="66.8706" y="253" width="66" height="52" fill="white"/>
<path d="M98.1455 283H92.5557V282.221L95.5088 278.939C95.9463 278.443 96.2471 278.041 96.4111 277.732C96.5791 277.42 96.6631 277.098 96.6631 276.766C96.6631 276.32 96.5283 275.955 96.2588 275.67C95.9893 275.385 95.6299 275.242 95.1807 275.242C94.6416 275.242 94.2217 275.396 93.9209 275.705C93.624 276.01 93.4756 276.436 93.4756 276.982H92.3916C92.3916 276.197 92.6436 275.562 93.1475 275.078C93.6553 274.594 94.333 274.352 95.1807 274.352C95.9736 274.352 96.6006 274.561 97.0615 274.979C97.5225 275.393 97.7529 275.945 97.7529 276.637C97.7529 277.477 97.2178 278.477 96.1475 279.637L93.8623 282.115H98.1455V283ZM103.448 279.25C103.222 279.52 102.95 279.736 102.634 279.9C102.321 280.064 101.978 280.146 101.603 280.146C101.11 280.146 100.681 280.025 100.313 279.783C99.9502 279.541 99.6689 279.201 99.4697 278.764C99.2705 278.322 99.1709 277.836 99.1709 277.305C99.1709 276.734 99.2783 276.221 99.4932 275.764C99.7119 275.307 100.021 274.957 100.419 274.715C100.817 274.473 101.282 274.352 101.813 274.352C102.657 274.352 103.321 274.668 103.806 275.301C104.294 275.93 104.538 276.789 104.538 277.879V278.195C104.538 279.855 104.21 281.068 103.554 281.834C102.897 282.596 101.907 282.986 100.583 283.006H100.372V282.092H100.601C101.495 282.076 102.183 281.844 102.663 281.395C103.144 280.941 103.405 280.227 103.448 279.25ZM101.778 279.25C102.142 279.25 102.476 279.139 102.78 278.916C103.089 278.693 103.313 278.418 103.454 278.09V277.656C103.454 276.945 103.3 276.367 102.991 275.922C102.683 275.477 102.292 275.254 101.819 275.254C101.343 275.254 100.96 275.438 100.671 275.805C100.382 276.168 100.237 276.648 100.237 277.246C100.237 277.828 100.376 278.309 100.653 278.688C100.935 279.062 101.31 279.25 101.778 279.25Z" fill="#172755"/>
<rect x="132.871" y="253" width="66" height="52" fill="white"/>
<path d="M160.132 278.207H160.946C161.458 278.199 161.86 278.064 162.153 277.803C162.446 277.541 162.593 277.188 162.593 276.742C162.593 275.742 162.095 275.242 161.099 275.242C160.63 275.242 160.255 275.377 159.974 275.646C159.696 275.912 159.558 276.266 159.558 276.707H158.474C158.474 276.031 158.72 275.471 159.212 275.025C159.708 274.576 160.337 274.352 161.099 274.352C161.903 274.352 162.534 274.564 162.991 274.99C163.448 275.416 163.677 276.008 163.677 276.766C163.677 277.137 163.556 277.496 163.313 277.844C163.075 278.191 162.749 278.451 162.335 278.623C162.804 278.771 163.165 279.018 163.419 279.361C163.677 279.705 163.806 280.125 163.806 280.621C163.806 281.387 163.556 281.994 163.056 282.443C162.556 282.893 161.905 283.117 161.104 283.117C160.304 283.117 159.651 282.9 159.147 282.467C158.647 282.033 158.397 281.461 158.397 280.75H159.487C159.487 281.199 159.634 281.559 159.927 281.828C160.22 282.098 160.612 282.232 161.104 282.232C161.628 282.232 162.028 282.096 162.306 281.822C162.583 281.549 162.722 281.156 162.722 280.645C162.722 280.148 162.569 279.768 162.265 279.502C161.96 279.236 161.521 279.1 160.946 279.092H160.132V278.207ZM170.644 279.361C170.644 280.631 170.427 281.574 169.993 282.191C169.56 282.809 168.882 283.117 167.96 283.117C167.05 283.117 166.376 282.816 165.938 282.215C165.501 281.609 165.274 280.707 165.259 279.508V278.061C165.259 276.807 165.476 275.875 165.909 275.266C166.343 274.656 167.022 274.352 167.948 274.352C168.866 274.352 169.542 274.646 169.976 275.236C170.409 275.822 170.632 276.729 170.644 277.955V279.361ZM169.56 277.879C169.56 276.961 169.431 276.293 169.173 275.875C168.915 275.453 168.507 275.242 167.948 275.242C167.394 275.242 166.989 275.451 166.735 275.869C166.481 276.287 166.351 276.93 166.343 277.797V279.531C166.343 280.453 166.476 281.135 166.741 281.576C167.011 282.014 167.417 282.232 167.96 282.232C168.495 282.232 168.892 282.025 169.149 281.611C169.411 281.197 169.548 280.545 169.56 279.654V277.879Z" fill="#172755"/>
<rect x="198.871" y="253" width="66" height="52" fill="white"/>
<path d="M226.132 278.207H226.946C227.458 278.199 227.86 278.064 228.153 277.803C228.446 277.541 228.593 277.188 228.593 276.742C228.593 275.742 228.095 275.242 227.099 275.242C226.63 275.242 226.255 275.377 225.974 275.646C225.696 275.912 225.558 276.266 225.558 276.707H224.474C224.474 276.031 224.72 275.471 225.212 275.025C225.708 274.576 226.337 274.352 227.099 274.352C227.903 274.352 228.534 274.564 228.991 274.99C229.448 275.416 229.677 276.008 229.677 276.766C229.677 277.137 229.556 277.496 229.313 277.844C229.075 278.191 228.749 278.451 228.335 278.623C228.804 278.771 229.165 279.018 229.419 279.361C229.677 279.705 229.806 280.125 229.806 280.621C229.806 281.387 229.556 281.994 229.056 282.443C228.556 282.893 227.905 283.117 227.104 283.117C226.304 283.117 225.651 282.9 225.147 282.467C224.647 282.033 224.397 281.461 224.397 280.75H225.487C225.487 281.199 225.634 281.559 225.927 281.828C226.22 282.098 226.612 282.232 227.104 282.232C227.628 282.232 228.028 282.096 228.306 281.822C228.583 281.549 228.722 281.156 228.722 280.645C228.722 280.148 228.569 279.768 228.265 279.502C227.96 279.236 227.521 279.1 226.946 279.092H226.132V278.207ZM234.856 283H233.767V275.775L231.581 276.578V275.594L234.687 274.428H234.856V283Z" fill="#172755"/>
<rect x="264.871" y="253" width="66" height="52" fill="white"/>
<rect x="330.871" y="253" width="66" height="52" fill="white"/>
<rect x="396.871" y="253" width="66" height="52" fill="white"/>
<path d="M20.6733 4.46875L23.4624 11.4297L26.2515 4.46875H27.7104V13H26.5854V9.67773L26.6909 6.0918L23.8901 13H23.0288L20.2339 6.10938L20.3452 9.67773V13H19.2202V4.46875H20.6733ZM36.2593 9.00977C36.2593 9.8457 36.1187 10.5762 35.8374 11.2012C35.5562 11.8223 35.1577 12.2969 34.6421 12.625C34.1265 12.9531 33.5249 13.1172 32.8374 13.1172C32.1655 13.1172 31.5698 12.9531 31.0503 12.625C30.5308 12.293 30.1265 11.8223 29.8374 11.2129C29.5522 10.5996 29.4058 9.89062 29.3979 9.08594V8.4707C29.3979 7.65039 29.5405 6.92578 29.8257 6.29688C30.1108 5.66797 30.5132 5.1875 31.0327 4.85547C31.5562 4.51953 32.1538 4.35156 32.8257 4.35156C33.5093 4.35156 34.1108 4.51758 34.6304 4.84961C35.1538 5.17773 35.5562 5.65625 35.8374 6.28516C36.1187 6.91016 36.2593 7.63867 36.2593 8.4707V9.00977ZM35.1401 8.45898C35.1401 7.44727 34.937 6.67188 34.5308 6.13281C34.1245 5.58984 33.5562 5.31836 32.8257 5.31836C32.1147 5.31836 31.5542 5.58984 31.144 6.13281C30.7378 6.67188 30.5288 7.42188 30.5171 8.38281V9.00977C30.5171 9.99023 30.7222 10.7617 31.1323 11.3242C31.5464 11.8828 32.1147 12.1621 32.8374 12.1621C33.564 12.1621 34.1265 11.8984 34.5249 11.3711C34.9233 10.8398 35.1284 10.0801 35.1401 9.0918V8.45898ZM44.5034 13H43.3726L39.0776 6.42578V13H37.9468V4.46875H39.0776L43.3843 11.0723V4.46875H44.5034V13Z" fill="#8794BA"/>
<path d="M93.8745 5.39453H91.1323V13H90.0132V5.39453H87.2769V4.46875H93.8745V5.39453ZM101.146 4.46875V10.2695C101.142 11.0742 100.888 11.7324 100.384 12.2441C99.8843 12.7559 99.2046 13.043 98.3452 13.1055L98.0464 13.1172C97.1128 13.1172 96.3687 12.8652 95.814 12.3613C95.2593 11.8574 94.978 11.1641 94.9702 10.2812V4.46875H96.0835V10.2461C96.0835 10.8633 96.2534 11.3438 96.5933 11.6875C96.9331 12.0273 97.4175 12.1973 98.0464 12.1973C98.6831 12.1973 99.1694 12.0273 99.5054 11.6875C99.8452 11.3477 100.015 10.8691 100.015 10.252V4.46875H101.146ZM107.744 9.05664H104.046V12.0801H108.341V13H102.921V4.46875H108.283V5.39453H104.046V8.13672H107.744V9.05664Z" fill="#8794BA"/>
<path d="M154.027 10.3105L154.191 11.4355L154.431 10.4219L156.119 4.46875H157.068L158.714 10.4219L158.949 11.4531L159.13 10.3047L160.455 4.46875H161.585L159.517 13H158.492L156.734 6.7832L156.599 6.13281L156.464 6.7832L154.642 13H153.617L151.554 4.46875H152.679L154.027 10.3105ZM167.662 9.05664H163.964V12.0801H168.259V13H162.839V4.46875H168.201V5.39453H163.964V8.13672H167.662V9.05664ZM169.66 13V4.46875H172.068C172.81 4.46875 173.466 4.63281 174.037 4.96094C174.607 5.28906 175.046 5.75586 175.355 6.36133C175.667 6.9668 175.826 7.66211 175.83 8.44727V8.99219C175.83 9.79688 175.673 10.502 175.361 11.1074C175.052 11.7129 174.609 12.1777 174.031 12.502C173.457 12.8262 172.787 12.9922 172.021 13H169.66ZM170.785 5.39453V12.0801H171.968C172.835 12.0801 173.509 11.8105 173.99 11.2715C174.474 10.7324 174.716 9.96484 174.716 8.96875V8.4707C174.716 7.50195 174.488 6.75 174.031 6.21484C173.578 5.67578 172.933 5.40234 172.097 5.39453H170.785Z" fill="#8794BA"/>
<path d="M225.007 5.39453H222.265V13H221.146V5.39453H218.41V4.46875H225.007V5.39453ZM232.83 13H231.699V9.05664H227.398V13H226.273V4.46875H227.398V8.13672H231.699V4.46875H232.83V13ZM240.833 4.46875V10.2695C240.83 11.0742 240.576 11.7324 240.072 12.2441C239.572 12.7559 238.892 13.043 238.033 13.1055L237.734 13.1172C236.8 13.1172 236.056 12.8652 235.501 12.3613C234.947 11.8574 234.666 11.1641 234.658 10.2812V4.46875H235.771V10.2461C235.771 10.8633 235.941 11.3438 236.281 11.6875C236.621 12.0273 237.105 12.1973 237.734 12.1973C238.371 12.1973 238.857 12.0273 239.193 11.6875C239.533 11.3477 239.703 10.8691 239.703 10.252V4.46875H240.833Z" fill="#8794BA"/>
<path d="M292.917 9.23242H289.337V13H288.212V4.46875H293.498V5.39453H289.337V8.3125H292.917V9.23242ZM297.974 9.54883H295.97V13H294.839V4.46875H297.664C298.625 4.46875 299.363 4.6875 299.878 5.125C300.398 5.5625 300.658 6.19922 300.658 7.03516C300.658 7.56641 300.513 8.0293 300.224 8.42383C299.939 8.81836 299.541 9.11328 299.029 9.30859L301.033 12.9297V13H299.826L297.974 9.54883ZM295.97 8.62891H297.699C298.257 8.62891 298.701 8.48438 299.029 8.19531C299.361 7.90625 299.527 7.51953 299.527 7.03516C299.527 6.50781 299.369 6.10352 299.052 5.82227C298.74 5.54102 298.287 5.39844 297.693 5.39453H295.97V8.62891ZM303.447 13H302.322V4.46875H303.447V13Z" fill="#8794BA"/>
<path d="M354.699 9.19727C353.734 8.91992 353.031 8.58008 352.589 8.17773C352.152 7.77148 351.933 7.27148 351.933 6.67773C351.933 6.00586 352.201 5.45117 352.736 5.01367C353.275 4.57227 353.974 4.35156 354.833 4.35156C355.419 4.35156 355.941 4.46484 356.398 4.69141C356.859 4.91797 357.214 5.23047 357.464 5.62891C357.718 6.02734 357.845 6.46289 357.845 6.93555H356.714C356.714 6.41992 356.55 6.01562 356.222 5.72266C355.894 5.42578 355.431 5.27734 354.833 5.27734C354.279 5.27734 353.845 5.40039 353.533 5.64648C353.224 5.88867 353.07 6.22656 353.07 6.66016C353.07 7.00781 353.216 7.30273 353.509 7.54492C353.806 7.7832 354.308 8.00195 355.015 8.20117C355.726 8.40039 356.281 8.62109 356.679 8.86328C357.082 9.10156 357.378 9.38086 357.57 9.70117C357.765 10.0215 357.863 10.3984 357.863 10.832C357.863 11.5234 357.593 12.0781 357.054 12.4961C356.515 12.9102 355.794 13.1172 354.892 13.1172C354.306 13.1172 353.759 13.0059 353.251 12.7832C352.744 12.5566 352.351 12.248 352.074 11.8574C351.8 11.4668 351.664 11.0234 351.664 10.5273H352.794C352.794 11.043 352.984 11.4512 353.363 11.752C353.746 12.0488 354.255 12.1973 354.892 12.1973C355.486 12.1973 355.941 12.0762 356.257 11.834C356.574 11.5918 356.732 11.2617 356.732 10.8438C356.732 10.4258 356.585 10.1035 356.292 9.87695C356 9.64648 355.468 9.41992 354.699 9.19727ZM364.021 10.7734H360.447L359.644 13H358.484L361.742 4.46875H362.726L365.99 13H364.835L364.021 10.7734ZM360.787 9.84766H363.687L362.234 5.85742L360.787 9.84766ZM372.271 5.39453H369.529V13H368.41V5.39453H365.673V4.46875H372.271V5.39453Z" fill="#8794BA"/>
<path d="M419.644 9.19727C418.679 8.91992 417.976 8.58008 417.535 8.17773C417.097 7.77148 416.878 7.27148 416.878 6.67773C416.878 6.00586 417.146 5.45117 417.681 5.01367C418.22 4.57227 418.919 4.35156 419.779 4.35156C420.365 4.35156 420.886 4.46484 421.343 4.69141C421.804 4.91797 422.16 5.23047 422.41 5.62891C422.664 6.02734 422.791 6.46289 422.791 6.93555H421.66C421.66 6.41992 421.496 6.01562 421.167 5.72266C420.839 5.42578 420.376 5.27734 419.779 5.27734C419.224 5.27734 418.791 5.40039 418.478 5.64648C418.169 5.88867 418.015 6.22656 418.015 6.66016C418.015 7.00781 418.162 7.30273 418.455 7.54492C418.751 7.7832 419.253 8.00195 419.96 8.20117C420.671 8.40039 421.226 8.62109 421.625 8.86328C422.027 9.10156 422.324 9.38086 422.515 9.70117C422.71 10.0215 422.808 10.3984 422.808 10.832C422.808 11.5234 422.539 12.0781 422 12.4961C421.46 12.9102 420.74 13.1172 419.837 13.1172C419.251 13.1172 418.705 13.0059 418.197 12.7832C417.689 12.5566 417.296 12.248 417.019 11.8574C416.746 11.4668 416.609 11.0234 416.609 10.5273H417.74C417.74 11.043 417.929 11.4512 418.308 11.752C418.691 12.0488 419.201 12.1973 419.837 12.1973C420.431 12.1973 420.886 12.0762 421.203 11.834C421.519 11.5918 421.677 11.2617 421.677 10.8438C421.677 10.4258 421.531 10.1035 421.238 9.87695C420.945 9.64648 420.414 9.41992 419.644 9.19727ZM430.261 4.46875V10.2695C430.257 11.0742 430.003 11.7324 429.5 12.2441C429 12.7559 428.32 13.043 427.46 13.1055L427.162 13.1172C426.228 13.1172 425.484 12.8652 424.929 12.3613C424.375 11.8574 424.093 11.1641 424.085 10.2812V4.46875H425.199V10.2461C425.199 10.8633 425.369 11.3438 425.708 11.6875C426.048 12.0273 426.533 12.1973 427.162 12.1973C427.798 12.1973 428.285 12.0273 428.621 11.6875C428.96 11.3477 429.13 10.8691 429.13 10.252V4.46875H430.261ZM438.593 13H437.462L433.167 6.42578V13H432.037V4.46875H433.167L437.474 11.0723V4.46875H438.593V13Z" fill="#8794BA"/>
</svg>
